# xmcd
#
# Track frame offsets:
#	150
#	13822
#	29795
#	43182
#	60547
#	78922
#	93525
#	109765
#	122075
#	139090
#	149492
#	163442
#	182565
#	192387
#	207152
#	220550
#	235967
#	253682
#	270477
#	286712
#	302057
#	316562
#
# Disc length: 4449
#
# Revision: 1
# Processed by: cddbd v1.5.1PL0 Copyright (c) Steve Scherf et al.
# Submitted via: audiograbber 1.82.02
# Normalized: r0:DSETVAR1
#
DISCID=42115f16
DTITLE=Various Artist - GoldDisc 2045
DYEAR=1990
DGENRE=Country
TTITLE0=Shania Twain - What Made You Say That
TTITLE1=Nitty Gritty Dirt Band - An American Dream
TTITLE2=Ronnie McDowell - You Made A Wanted Man Of Me
TTITLE3=Rhett Atkins - Love You Back
TTITLE4=Merle Haggard - Going Where The Lonely Go
TTITLE5=Don Williams - If Hollywood Don't Need You
TTITLE6=Lonestar - When Cowboys Don't Dance
TTITLE7=Gene Watson - Fourteen Carat Mind
TTITLE8=Travis Tritt - Tell Me I Was Dreaming
TTITLE9=Statler Brothers - Do You Know You Are My Sunshine
TTITLE10=Charley Pride - Never Been So Loved (In All My Life)
TTITLE11=Deana Carter - Did I Shave My Legs For This? (Live Version)
TTITLE12=Waylon Jennings - Good Ol' Boys (Dukes Of Hazzard Theme)
TTITLE13=Mickey Gilley - Talk To Me
TTITLE14=John Anderson - Would You Catch A Falling Star
TTITLE15=Blackhawk - King Of The World
TTITLE16=Linda Ronstadt - Blue Bayou
TTITLE17=Chris LeDoux - Tougher Than The Rest
TTITLE18=Stephanie Bentley - Once I Was The Light Of Your Life
TTITLE19=Hank Williams Jr. - A Little Less Talk
TTITLE20=George Strait - Where The Sidewalk Ends
TTITLE21=Burnin' Daylight - Say Yes
EXTD=
EXTT0=
EXTT1=
EXTT2=
EXTT3=
EXTT4=
EXTT5=
EXTT6=
EXTT7=
EXTT8=
EXTT9=
EXTT10=
EXTT11=
EXTT12=
EXTT13=
EXTT14=
EXTT15=
EXTT16=
EXTT17=
EXTT18=
EXTT19=
EXTT20=
EXTT21=
PLAYORDER=
